<svg width="48" height="48" viewBox="0 0 48 48" fill="none" xmlns="http://www.w3.org/2000/svg">
<g clip-path="url(#clip0_1_544)">
<path d="M16.6201 9.24719H8.22729C7.45056 9.24719 6.82104 9.87671 6.82104 10.6534C6.82104 11.4302 7.45056 12.0597 8.22729 12.0597H16.6201C17.3965 12.0597 18.0264 11.4302 18.0264 10.6534C18.0264 9.87671 17.3965 9.24719 16.6201 9.24719Z" fill="#FF5A30"/>
<path d="M16.6201 14.8726H8.22729C7.45056 14.8726 6.82104 15.5021 6.82104 16.2788C6.82104 17.0555 7.45056 17.6851 8.22729 17.6851H16.6201C17.3965 17.6851 18.0264 17.0555 18.0264 16.2788C18.0264 15.5021 17.3965 14.8726 16.6201 14.8726Z" fill="#FF5A30"/>
<path d="M16.6201 20.4979H8.22729C7.45056 20.4979 6.82104 21.1274 6.82104 21.9042C6.82104 22.6809 7.45056 23.3104 8.22729 23.3104H16.6201C17.3965 23.3104 18.0264 22.6809 18.0264 21.9042C18.0264 21.1274 17.3965 20.4979 16.6201 20.4979Z" fill="#FF5A30"/>
<path d="M16.6201 26.1233H8.22729C7.45056 26.1233 6.82104 26.7528 6.82104 27.5295C6.82104 28.3063 7.45056 28.9358 8.22729 28.9358H16.6201C17.3965 28.9358 18.0264 28.3063 18.0264 27.5295C18.0264 26.7528 17.3965 26.1233 16.6201 26.1233Z" fill="#FF5A30"/>
<path d="M16.6201 31.8428H8.22729C7.45056 31.8428 6.82104 32.4727 6.82104 33.249C6.82104 34.0258 7.45056 34.6553 8.22729 34.6553H16.6201C17.3965 34.6553 18.0264 34.0258 18.0264 33.249C18.0264 32.4727 17.3965 31.8428 16.6201 31.8428Z" fill="#FF5A30"/>
<path d="M21.3428 12.0597H29.7356C30.5123 12.0597 31.1418 11.4302 31.1418 10.6534C31.1418 9.87671 30.5123 9.24719 29.7356 9.24719H21.3428C20.5664 9.24719 19.9365 9.87671 19.9365 10.6534C19.9365 11.4302 20.5664 12.0597 21.3428 12.0597Z" fill="#FF5A30"/>
<path d="M21.3428 17.6851H29.7356C30.5123 17.6851 31.1418 17.0555 31.1418 16.2788C31.1418 15.5021 30.5123 14.8726 29.7356 14.8726H21.3428C20.5664 14.8726 19.9365 15.5021 19.9365 16.2788C19.9365 17.0555 20.5664 17.6851 21.3428 17.6851Z" fill="#FF5A30"/>
<path d="M26.7913 21.9042C26.7913 21.1274 26.1617 20.4979 25.385 20.4979H21.3428C20.5664 20.4979 19.9365 21.1274 19.9365 21.9042C19.9365 22.6809 20.5664 23.3104 21.3428 23.3104H25.385C26.1617 23.3104 26.7913 22.6809 26.7913 21.9042Z" fill="#FF5A30"/>
<path d="M40.1129 32.4365C39.5072 31.9505 38.6224 32.0476 38.1361 32.6533L34.5143 37.1687L32.272 35.5442C31.6432 35.0882 30.7636 35.2288 30.308 35.8576C29.8524 36.4868 29.9931 37.3661 30.6218 37.8216L33.9481 40.2317C34.1972 40.4118 34.4857 40.4994 34.7725 40.4994C35.1852 40.4994 35.5932 40.3181 35.87 39.9727L40.3301 34.4133C40.816 33.8076 40.719 32.9224 40.1129 32.4365Z" fill="#FF5A30"/>
<path d="M43.6674 28.1195C41.8356 26.2555 39.4819 25.0807 36.9316 24.7346V5.66345C36.9316 2.54077 34.3909 0 31.2682 0H6.69507C3.57202 0 1.03125 2.54077 1.03125 5.66345V38.239C1.03125 41.3621 3.57202 43.9028 6.6947 43.9028H26.4587C28.6827 46.5154 31.8805 48 35.3401 48C41.7799 48 47.0189 42.7573 47.0189 36.3131C47.0189 33.2281 45.8287 30.3182 43.6674 28.1195V28.1195ZM3.84375 38.239V5.66345C3.84375 4.09167 5.12292 2.8125 6.69507 2.8125H31.2682C32.8403 2.8125 34.1191 4.09167 34.1191 5.66345V24.6899C28.251 25.3026 23.6613 30.2812 23.6613 36.3131C23.6613 37.9849 24.0099 39.6013 24.6786 41.09H6.69507C5.12292 41.09 3.84375 39.8112 3.84375 38.239ZM35.3401 45.1875C32.5316 45.1875 29.9498 43.8981 28.2561 41.6503C27.0901 40.1023 26.4734 38.257 26.4734 36.3131C26.4734 31.4198 30.4512 27.4387 35.3401 27.4387C35.3862 27.4387 35.4327 27.4395 35.4789 27.4402L35.5005 27.4406C37.8344 27.4819 40.0225 28.4231 41.6616 30.0908C43.3026 31.7604 44.2064 33.9705 44.2064 36.3131C44.2064 41.2064 40.229 45.1875 35.3401 45.1875V45.1875Z" fill="#FF5A30"/>
</g>
<defs>
<clipPath id="clip0_1_544">
<rect width="48" height="48" fill="white"/>
</clipPath>
</defs>
</svg>
